<svg data-v-423bf9ae="" xmlns="http://www.w3.org/2000/svg" viewBox="0 0 451 90" class="iconLeft"><!----><defs data-v-423bf9ae=""><linearGradient data-v-423bf9ae="" gradientTransform="rotate(25)" id="340a8795-53c6-4209-864a-0aa9ebd35283" x1="0%" y1="0%" x2="100%" y2="0%"><stop data-v-423bf9ae="" offset="0%" style="stop-color: rgb(24, 36, 113); stop-opacity: 1;"></stop><stop data-v-423bf9ae="" offset="100%" style="stop-color: rgb(38, 100, 200); stop-opacity: 1;"></stop></linearGradient></defs><!----><g data-v-423bf9ae="" id="b431a8cc-12fd-48f6-9d91-3da564690756" fill="#fff" transform="matrix(5.357142948374458,0,0,5.357142948374458,175.69883147429454,9.374998490725247)"><path d="M0.70 12.02L0.70 12.02L0.70 1.27L0.70 1.27Q0.70 1.05 0.94 1.05L0.94 1.05L2.38 1.05L2.38 1.05Q2.60 1.05 2.60 1.27L2.60 1.27L2.60 5.73L4.40 5.73L4.40 1.27L4.40 1.27Q4.40 1.05 4.62 1.05L4.62 1.05L6.06 1.05L6.06 1.05Q6.30 1.05 6.30 1.27L6.30 1.27L6.30 12.02L6.30 12.02Q6.30 12.25 6.06 12.25L6.06 12.25L4.62 12.25L4.62 12.25Q4.52 12.25 4.46 12.19L4.46 12.19L4.46 12.19Q4.40 12.13 4.40 12.02L4.40 12.02L4.40 7.57L2.60 7.57L2.60 12.02L2.60 12.02Q2.60 12.13 2.54 12.19L2.54 12.19L2.54 12.19Q2.48 12.25 2.38 12.25L2.38 12.25L0.94 12.25L0.94 12.25Q0.70 12.25 0.70 12.02ZM7.29 12.01L7.29 12.01L9.62 1.24L9.62 1.24Q9.66 1.05 9.86 1.05L9.86 1.05L11.80 1.05L11.80 1.05Q12.00 1.05 12.04 1.24L12.04 1.24L14.36 12.01L14.36 12.01Q14.37 12.04 14.37 12.08L14.37 12.08L14.37 12.08Q14.37 12.25 14.17 12.25L14.17 12.25L12.68 12.25L12.68 12.25Q12.50 12.25 12.46 12.05L12.46 12.05L12.07 10.01L9.58 10.01L9.19 12.05L9.19 12.05Q9.15 12.25 8.98 12.25L8.98 12.25L7.48 12.25L7.48 12.25Q7.28 12.25 7.28 12.10L7.28 12.10L7.28 12.10Q7.28 12.06 7.29 12.01ZM10.82 3.50L9.93 8.39L11.72 8.39L10.82 3.50ZM15.62 1.27L15.62 12.02L15.62 12.02Q15.62 12.25 15.85 12.25L15.85 12.25L20.86 12.25L20.86 12.25Q21.08 12.25 21.08 12.02L21.08 12.02L21.08 10.62L21.08 10.62Q21.08 10.40 20.86 10.40L20.86 10.40L17.53 10.40L17.53 1.27L17.53 1.27Q17.53 1.05 17.30 1.05L17.30 1.05L15.85 1.05L15.85 1.05Q15.62 1.05 15.62 1.27L15.62 1.27ZM22.20 12.02L22.20 12.02L22.20 1.27L22.20 1.27Q22.20 1.05 22.42 1.05L22.42 1.05L23.88 1.05L23.88 1.05Q24.10 1.05 24.10 1.27L24.10 1.27L24.10 12.02L24.10 12.02Q24.10 12.13 24.04 12.19L24.04 12.19L24.04 12.19Q23.98 12.25 23.88 12.25L23.88 12.25L22.42 12.25L22.42 12.25Q22.20 12.25 22.20 12.02ZM25.22 2.67L25.22 2.67L25.22 1.27L25.22 1.27Q25.22 1.05 25.44 1.05L25.44 1.05L30.60 1.05L30.60 1.05Q30.82 1.05 30.82 1.27L30.82 1.27L30.82 2.67L30.82 2.67Q30.82 2.90 30.60 2.90L30.60 2.90L28.97 2.90L28.97 12.02L28.97 12.02Q28.97 12.25 28.75 12.25L28.75 12.25L27.30 12.25L27.30 12.25Q27.07 12.25 27.07 12.02L27.07 12.02L27.07 2.90L25.44 2.90L25.44 2.90Q25.34 2.90 25.28 2.84L25.28 2.84L25.28 2.84Q25.22 2.78 25.22 2.67ZM31.80 12.02L31.80 12.02L31.80 1.27L31.80 1.27Q31.80 1.17 31.86 1.11L31.86 1.11L31.86 1.11Q31.92 1.05 32.01 1.05L32.01 1.05L37.17 1.05L37.17 1.05Q37.39 1.05 37.39 1.27L37.39 1.27L37.39 2.67L37.39 2.67Q37.39 2.91 37.17 2.91L37.17 2.91L33.67 2.91L33.67 5.71L36.34 5.71L36.34 5.71Q36.57 5.71 36.57 5.95L36.57 5.95L36.57 7.33L36.57 7.33Q36.57 7.57 36.34 7.57L36.34 7.57L33.67 7.57L33.67 10.40L37.17 10.40L37.17 10.40Q37.30 10.40 37.34 10.45L37.34 10.45L37.34 10.45Q37.39 10.50 37.39 10.62L37.39 10.62L37.39 12.02L37.39 12.02Q37.39 12.25 37.17 12.25L37.17 12.25L32.01 12.25L32.01 12.25Q31.92 12.25 31.86 12.19L31.86 12.19L31.86 12.19Q31.80 12.13 31.80 12.02ZM38.64 10.23L38.64 10.23L38.64 3.07L38.64 3.07Q38.64 2.08 39.16 1.57L39.16 1.57L39.16 1.57Q39.68 1.05 40.67 1.05L40.67 1.05L42.25 1.05L42.25 1.05Q43.22 1.05 43.74 1.57L43.74 1.57L43.74 1.57Q44.26 2.08 44.26 3.07L44.26 3.07L44.26 4.58L44.26 4.58Q44.26 4.80 44.04 4.80L44.04 4.80L42.64 4.80L42.64 4.80Q42.41 4.80 42.41 4.58L42.41 4.58L42.41 3.46L42.41 3.46Q42.41 2.90 41.85 2.90L41.85 2.90L41.13 2.90L41.13 2.90Q40.56 2.90 40.56 3.46L40.56 3.46L40.56 9.84L40.56 9.84Q40.56 10.40 41.13 10.40L41.13 10.40L41.85 10.40L41.85 10.40Q42.41 10.40 42.41 9.84L42.41 9.84L42.41 8.72L42.41 8.72Q42.41 8.50 42.64 8.50L42.64 8.50L44.04 8.50L44.04 8.50Q44.14 8.50 44.20 8.56L44.20 8.56L44.20 8.56Q44.26 8.62 44.26 8.72L44.26 8.72L44.26 10.23L44.26 10.23Q44.26 11.22 43.74 11.73L43.74 11.73L43.74 11.73Q43.22 12.25 42.25 12.25L42.25 12.25L40.67 12.25L40.67 12.25Q39.68 12.25 39.16 11.74L39.16 11.74L39.16 11.74Q38.64 11.22 38.64 10.23ZM45.66 12.02L45.66 12.02L45.66 1.27L45.66 1.27Q45.66 1.05 45.90 1.05L45.90 1.05L47.34 1.05L47.34 1.05Q47.56 1.05 47.56 1.27L47.56 1.27L47.56 5.73L49.36 5.73L49.36 1.27L49.36 1.27Q49.36 1.05 49.58 1.05L49.58 1.05L51.02 1.05L51.02 1.05Q51.26 1.05 51.26 1.27L51.26 1.27L51.26 12.02L51.26 12.02Q51.26 12.25 51.02 12.25L51.02 12.25L49.58 12.25L49.58 12.25Q49.48 12.25 49.42 12.19L49.42 12.19L49.42 12.19Q49.36 12.13 49.36 12.02L49.36 12.02L49.36 7.57L47.56 7.57L47.56 12.02L47.56 12.02Q47.56 12.13 47.50 12.19L47.50 12.19L47.50 12.19Q47.44 12.25 47.34 12.25L47.34 12.25L45.90 12.25L45.90 12.25Q45.66 12.25 45.66 12.02Z"></path></g><!----><g data-v-423bf9ae="" id="156d0bfb-55ed-4384-910a-b6a39b87137c" transform="matrix(1.7716535699146536,0,0,1.7716535699146536,0.27558935384058714,0)" stroke="none" fill="#fff"><path clip-rule="evenodd" d="M80 2.3C80 1 78.9 0 77.6 0H12.3C11 0 10 1 10 2.3v44.3h70V2.3zM44.6.8c.7 0 1.2.6 1.2 1.3 0 .7-.6 1.3-1.2 1.3-.7 0-1.2-.6-1.2-1.3-.1-.7.5-1.3 1.2-1.3zm31.2 41.7H14.2V4.2h61.6v38.3zm-23.8 5c-.1.6-.5.8-1.1.8H39.1c-.6 0-1-.2-1.1-.8H0v1.6c0 .9 6.3 1.7 14 1.7h62c7.7 0 14-.8 14-1.7v-1.6H52zm8.8-25.3l-11.6-4.9v3.2l8 3.1-8 3.1v3.2L60.8 25v-2.8zM43.2 32c.3 0 .5-.1.7-.2.2-.1.3-.3.4-.6.1-.2.2-.6.3-1l3.1-12.9c.2-.6.2-1 .2-1.3 0-.3-.1-.6-.3-.7-.2-.3-.5-.3-.8-.3-.4 0-.7.1-.9.4-.1.3-.3.7-.5 1.4l-3.1 12.9c-.1.7-.2 1.1-.2 1.3 0 .6.3 1 1.1 1zm-2.4-5.4l-8-3.1 8-3v-3.2l-11.7 4.9v2.7l11.7 4.9v-3.2z"></path></g><!----></svg>